<svg width="32.000641" height="31.882935" viewBox="0 0 32.0006 31.8829" fill="none" xmlns="http://www.w3.org/2000/svg" xmlns:xlink="http://www.w3.org/1999/xlink">
	<desc>
			Created with Pixso.
	</desc>
	<defs/>
	<path id="Vector" d="M16 0C7.16 0 0 7.16 0 16C0 23.5 5.16 29.79 12.13 31.52L12.13 20.88L8.83 20.88L8.83 16L12.13 16L12.13 13.89C12.13 8.44 14.59 5.92 19.94 5.92C20.96 5.92 22.7 6.12 23.42 6.32L23.42 10.75C23.04 10.71 22.39 10.69 21.57 10.69C18.95 10.69 17.93 11.68 17.93 14.27L17.93 16L23.16 16L22.26 20.88L17.93 20.88L17.93 31.88C25.86 30.92 32 24.18 32 16C32 7.16 24.83 0 16 0Z" fill="#D8AE5E" fill-opacity="1.000000" fill-rule="nonzero"/>
</svg>
